IKResults
version=1
nRows=9
nColumns=67
inDegrees=yes

Units are S.I. units (second, meters, Newtons, ...)
Angles are in degrees.

endheader
time	pelvis_tilt	pelvis_list	pelvis_rotation	pelvis_tx	pelvis_ty	pelvis_tz	hip_flexion_r	hip_adduction_r	hip_rotation_r	knee_angle_r	knee_rot_r	knee_adduc_r	ankle_angle_r	ankle_rot_r	ankle_add_r	subtalar_angle_r	mtp_angle_r	mtp_rot_r	mtp_add_r	hip_flexion_l	hip_adduction_l	hip_rotation_l	knee_angle_l	knee_rot_l	knee_adduc_l	ankle_angle_l	ankle_rot_l	ankle_add_l	subtalar_angle_l	mtp_angle_l	mtp_rot_l	mtp_add_l	lumbar_extension	lumbar_bending	lumbar_rotation	neck_flexion	neck_lateral_bending	neck_rotation	arm_flex_r	arm_add_r	arm_rot_r	elbow_flex_r	elbow_rot_r	elbow_add_r	pro_sup_r	wrist_flex_r	wrist_adduc_r	wrist_rot_r	wrist_dev_r	hand_finger_flex_r	hand_finger_adduc_r	hand_finger_rot_r	arm_flex_l	arm_add_l	arm_rot_l	elbow_flex_l	elbow_rot_l	elbow_add_l	pro_sup_l	wrist_flex_l	wrist_adduc_l	wrist_rot_l	wrist_dev_l	hand_finger_flex_l	hand_finger_adduc_l	hand_finger_rot_l
      0.00000000	     13.53792762	     -0.72394300	      5.68064238	     -2.45141951	      0.73957931	      0.85494216	     10.01607166	      4.59181770	      0.76589457	    -29.15296018	     -5.00000000	      1.80994850	      4.57288851	     -4.99998794	     -0.49587730	    -10.46092382	      0.86784612	     -0.99094531	      0.60301590	    -13.28166215	     -3.35742778	      8.09989684	    -58.63948633	      4.05306050	     -2.06754632	     -4.03482586	     -2.79241078	     -4.06475828	      5.96570063	      4.52855532	     -0.11659103	     -1.99940474	    -28.20298485	      4.76824111	    -12.13136912	      0.00000000	      0.00000000	      0.00000000	      0.00000000	      0.00000000	      0.00000000	      0.00000000	      0.00000000	      0.00000000	     -0.00042092	      0.00000000	      0.00000000	      0.00000000	      0.00000000	      0.00000000	      0.00000000	      0.00000000	      0.00000000	      0.00000000	      0.00000000	      0.00000000	      0.00000000	      0.00000000	      0.00000000	      0.00000000	      0.00000000	      0.00000000	      0.00000000	      0.00000000	      0.00000000	      0.00000000
      0.00500000	     13.66406201	     -0.52025774	      5.51520246	     -2.44546477	      0.74138650	      0.85568689	      9.02622036	      4.63482047	      0.92844357	    -28.59401185	     -5.00000000	      1.62815151	      4.77840648	     -4.96319328	     -0.42922825	    -10.42730340	      0.87673185	     -0.99674862	      0.60822588	    -12.10748159	     -3.11784968	      7.84955069	    -59.83520925	      4.25162193	     -2.12816904	     -3.96840021	     -2.58087615	     -3.96789096	      5.76635567	      4.61091196	     -0.11751806	     -2.00000000	    -28.45653148	      4.39157171	    -11.87545654	      0.00000000	      0.00000000	      0.00000000	      0.00000000	      0.00000000	      0.00000000	      0.00000000	      0.00000000	      0.00000000	     -0.00042092	      0.00000000	      0.00000000	      0.00000000	      0.00000000	      0.00000000	      0.00000000	      0.00000000	      0.00000000	      0.00000000	      0.00000000	      0.00000000	      0.00000000	      0.00000000	      0.00000000	      0.00000000	      0.00000000	      0.00000000	      0.00000000	      0.00000000	      0.00000000	      0.00000000
      0.01000000	     13.64106656	     -0.44182017	      5.28096484	     -2.43932631	      0.74301303	      0.85622613	      8.12820462	      4.78152885	      1.18098610	    -27.94255342	     -5.00000000	      1.41457118	      5.53871289	     -4.95766467	     -0.10138597	    -10.30257880	      0.92322597	     -1.04593786	      0.63959092	    -10.86298344	     -2.90724480	      7.70155800	    -60.94497311	      4.58381174	     -2.30372731	     -3.26668971	     -2.38134974	     -3.54905109	      5.28323550	      5.10070353	     -0.14796868	     -2.00000000	    -28.45717677	      4.13367290	    -10.90395315	      0.00000000	      0.00000000	      0.00000000	      0.00000000	      0.00000000	      0.00000000	      0.00000000	      0.00000000	      0.00000000	     -0.00042092	      0.00000000	      0.00000000	      0.00000000	      0.00000000	      0.00000000	      0.00000000	      0.00000000	      0.00000000	      0.00000000	      0.00000000	      0.00000000	      0.00000000	      0.00000000	      0.00000000	      0.00000000	      0.00000000	      0.00000000	      0.00000000	      0.00000000	      0.00000000	      0.00000000
      0.01500000	     13.74444646	     -0.26325053	      5.15455183	     -2.43353352	      0.74461588	      0.85696829	      7.20365657	      4.85054763	      1.35318218	    -27.42412991	     -5.00000000	      1.19767870	      5.64138142	     -4.91642107	     -0.05387089	    -10.25917532	      0.92896865	     -1.05215670	      0.64349562	     -9.67596027	     -2.72352860	      7.47731733	    -62.05825295	      4.73006171	     -2.37193101	     -3.13076308	     -2.23675520	     -3.46136487	      5.12013692	      5.17870860	     -0.15061141	     -2.00000000	    -28.69534243	      3.80204885	    -10.70540114	      0.00000000	      0.00000000	      0.00000000	      0.00000000	      0.00000000	      0.00000000	      0.00000000	      0.00000000	      0.00000000	     -0.00042092	      0.00000000	      0.00000000	      0.00000000	      0.00000000	      0.00000000	      0.00000000	      0.00000000	      0.00000000	      0.00000000	      0.00000000	      0.00000000	      0.00000000	      0.00000000	      0.00000000	      0.00000000	      0.00000000	      0.00000000	      0.00000000	      0.00000000	      0.00000000	      0.00000000
      0.02000000	     13.20214511	     -0.17721546	      5.12013672	     -2.42768080	      0.74559489	      0.85748282	      6.94752952	      5.00645009	      1.20236367	    -26.83864680	     -5.00000000	      0.66703558	      5.89764545	     -4.97344026	      1.39916959	     -9.92276405	      1.21489389	     -1.57639629	      0.88468696	     -7.80908474	     -2.61422988	      8.04127086	    -63.19078110	      5.00000000	     -3.23708213	     -2.09418568	     -2.62883510	     -0.82164492	      3.97853798	      9.16083685	     -0.35709748	     -2.00000000	    -28.05633144	      3.55803632	    -10.16829611	      0.00000000	      0.00000000	      0.00000000	      0.00000000	      0.00000000	      0.00000000	      0.00000000	      0.00000000	      0.00000000	     -0.00042092	      0.00000000	      0.00000000	      0.00000000	      0.00000000	      0.00000000	      0.00000000	      0.00000000	      0.00000000	      0.00000000	      0.00000000	      0.00000000	      0.00000000	      0.00000000	      0.00000000	      0.00000000	      0.00000000	      0.00000000	      0.00000000	      0.00000000	      0.00000000	      0.00000000
      0.02500000	     13.30645123	     -0.03485365	      5.01235536	     -2.42219456	      0.74714711	      0.85808388	      6.02457445	      4.99615360	      1.31560013	    -26.28489047	     -5.00000000	      0.60480891	      5.98053534	     -4.94532860	      1.42994825	     -9.89499722	      1.22221527	     -1.58116988	      0.88896196	     -6.66426602	     -2.53262810	      7.76740826	    -64.08574284	      5.00000000	     -3.33895997	     -1.95981641	     -2.42811522	     -0.82743153	      3.85597001	      9.21696898	     -0.35174094	     -2.00000000	    -28.29994589	      3.28217897	     -9.93542255	      0.00000000	      0.00000000	      0.00000000	      0.00000000	      0.00000000	      0.00000000	      0.00000000	      0.00000000	      0.00000000	     -0.00042092	      0.00000000	      0.00000000	      0.00000000	      0.00000000	      0.00000000	      0.00000000	      0.00000000	      0.00000000	      0.00000000	      0.00000000	      0.00000000	      0.00000000	      0.00000000	      0.00000000	      0.00000000	      0.00000000	      0.00000000	      0.00000000	      0.00000000	      0.00000000	      0.00000000
      0.03000000	     13.36121782	      0.11923474	      4.93829130	     -2.41667596	      0.74869386	      0.85856621	      5.07093353	      4.98547072	      1.45032892	    -25.57915160	     -5.00000000	      0.48203448	      6.10439927	     -4.92097619	      1.46497890	     -9.87341254	      1.23056866	     -1.58639303	      0.89379047	     -5.50549588	     -2.39958333	      7.52217126	    -64.84379992	      5.00000000	     -3.40754743	     -1.71946066	     -2.14705007	     -0.81645470	      3.65506124	      9.27556032	     -0.34513952	     -2.00000000	    -28.45481996	      3.01441665	     -9.60134009	      0.00000000	      0.00000000	      0.00000000	      0.00000000	      0.00000000	      0.00000000	      0.00000000	      0.00000000	      0.00000000	     -0.00042092	      0.00000000	      0.00000000	      0.00000000	      0.00000000	      0.00000000	      0.00000000	      0.00000000	      0.00000000	      0.00000000	      0.00000000	      0.00000000	      0.00000000	      0.00000000	      0.00000000	      0.00000000	      0.00000000	      0.00000000	      0.00000000	      0.00000000	      0.00000000	      0.00000000
      0.03500000	     13.32230004	      0.19962270	      4.80530681	     -2.41068107	      0.75030725	      0.85882226	      4.04319563	      5.03038671	      1.60346587	    -24.61393478	     -5.00000000	      0.30088680	      6.36485711	     -4.91649952	      1.56595933	     -9.82304569	      1.26619953	     -1.61602916	      0.91599858	     -4.44214462	     -2.30541493	      7.23094648	    -65.29027832	      5.00000000	     -3.51730214	     -0.96090072	     -1.55215196	     -0.77269838	      3.20452893	      9.52225157	     -0.33101130	     -2.00000000	    -28.31470718	      2.86869662	     -8.79052344	      0.00000000	      0.00000000	      0.00000000	      0.00000000	      0.00000000	      0.00000000	      0.00000000	      0.00000000	      0.00000000	     -0.00042092	      0.00000000	      0.00000000	      0.00000000	      0.00000000	      0.00000000	      0.00000000	      0.00000000	      0.00000000	      0.00000000	      0.00000000	      0.00000000	      0.00000000	      0.00000000	      0.00000000	      0.00000000	      0.00000000	      0.00000000	      0.00000000	      0.00000000	      0.00000000	      0.00000000
      0.04000000	     13.38424298	      0.37452751	      4.70503245	     -2.40539308	      0.75171933	      0.85937886	      3.17342667	      4.98655748	      1.71192906	    -24.04934397	     -5.00000000	      0.17259457	      6.44864204	     -4.87925336	      1.59274571	     -9.79266121	      1.27340325	     -1.62043287	      0.92013962	     -3.28003359	     -2.19878171	      6.97025784	    -65.89512530	      5.00000000	     -3.65440649	     -0.79069621	     -1.37727282	     -0.73246004	      3.05514999	      9.57412536	     -0.32735426	     -2.00000000	    -28.53646547	      2.55148958	     -8.58547342	      0.00000000	      0.00000000	      0.00000000	      0.00000000	      0.00000000	      0.00000000	      0.00000000	      0.00000000	      0.00000000	     -0.00042092	      0.00000000	      0.00000000	      0.00000000	      0.00000000	      0.00000000	      0.00000000	      0.00000000	      0.00000000	      0.00000000	      0.00000000	      0.00000000	      0.00000000	      0.00000000	      0.00000000	      0.00000000	      0.00000000	      0.00000000	      0.00000000	      0.00000000	      0.00000000	      0.00000000
